<?xml version="1.0" standalone="no"?>
<!DOCTYPE svg PUBLIC "-//W3C//DTD SVG 20010904//EN"
 "http://www.w3.org/TR/2001/REC-SVG-20010904/DTD/svg10.dtd">
<svg version="1.0" xmlns="http://www.w3.org/2000/svg"
 width="1790.000000pt" height="83.000000pt" viewBox="0 0 1790.000000 83.000000"
 preserveAspectRatio="xMidYMid meet">

<g transform="translate(0.000000,83.000000) scale(0.100000,-0.100000)"
fill="#000000" stroke="none">
<path d="M0 415 l0 -415 8950 0 8950 0 0 415 0 415 -8950 0 -8950 0 0 -415z
m914 280 c-40 -46 -53 -55 -81 -55 -39 0 -40 5 -11 65 l22 45 59 0 58 0 -47
-55z m-635 -32 c11 -43 31 -117 43 -165 13 -49 25 -88 28 -88 3 0 19 53 34
118 16 64 35 138 43 165 l14 47 84 0 85 0 0 -265 0 -265 -55 0 -55 0 -1 193
-1 192 -47 -190 -46 -190 -56 -3 -55 -3 -39 168 c-21 92 -42 177 -46 188 -4
11 -8 -64 -8 -167 l-1 -188 -55 0 -55 0 0 265 0 265 84 0 84 0 21 -77z m1871
-188 l0 -265 -50 0 c-44 0 -50 3 -50 20 0 20 -1 20 -37 -5 -78 -52 -169 -24
-216 66 -26 49 -28 61 -25 130 5 87 26 132 78 166 43 29 112 31 158 3 l32 -20
0 85 0 85 55 0 55 0 0 -265z m2580 220 l0 -45 -55 0 -55 0 0 45 0 45 55 0 55
0 0 -45z m4000 0 l0 -45 -55 0 -55 0 0 45 0 45 55 0 55 0 0 -45z m900 -220 l0
-265 -50 0 c-44 0 -50 3 -50 20 0 20 -1 20 -37 -5 -82 -55 -180 -22 -223 76
-18 44 -22 66 -18 125 6 83 27 127 78 161 43 29 112 31 158 3 l32 -20 0 85 0
85 55 0 55 0 0 -265z m5820 220 l0 -45 -55 0 -55 0 0 45 0 45 55 0 55 0 0 -45z
m850 -220 l0 -265 -50 0 c-43 0 -50 3 -50 20 0 18 -2 18 -36 -5 -129 -87 -268
54 -234 237 12 61 32 93 81 126 28 20 44 23 86 20 32 -3 61 -12 73 -23 20 -18
20 -18 20 68 l0 87 55 0 55 0 0 -265z m850 0 l0 -265 -50 0 c-43 0 -50 3 -50
20 0 18 -2 18 -36 -5 -74 -50 -165 -23 -212 63 -28 49 -34 153 -13 214 14 41
68 94 107 104 37 10 103 -2 125 -22 19 -17 19 -15 19 69 l0 87 55 0 55 0 0
-265z m630 213 c0 -29 -7 -116 -15 -193 -8 -77 -15 -144 -15 -148 0 -5 -15 -7
-32 -5 l-33 3 -12 120 c-6 66 -12 155 -12 198 l-1 77 60 0 60 0 0 -52z
m-16560 -23 l0 -65 35 0 c34 0 35 -1 35 -40 0 -39 -1 -40 -35 -40 l-36 0 3
-117 3 -118 33 3 c31 2 32 1 32 -37 0 -44 -10 -51 -70 -51 -51 0 -85 16 -99
47 -6 13 -11 79 -11 148 l0 125 -25 0 c-22 0 -25 4 -25 40 0 36 3 40 24 40 21
0 25 5 28 37 3 32 9 41 48 64 25 15 48 28 53 28 4 1 7 -28 7 -64z m-297 -69
c63 -26 107 -102 107 -183 l0 -33 -125 0 c-103 0 -125 -3 -125 -15 0 -29 23
-64 51 -76 24 -9 33 -9 54 5 14 9 25 21 25 28 0 11 95 7 106 -5 10 -9 -28 -68
-58 -90 -42 -32 -135 -35 -192 -8 -133 65 -127 316 9 377 39 17 107 18 148 0z
m711 -16 c106 -73 116 -241 19 -332 -72 -68 -199 -64 -275 9 -72 69 -67 236 9
305 59 54 181 63 247 18z m853 19 c143 -54 166 -280 37 -368 -64 -44 -176 -39
-239 11 -87 68 -91 245 -8 320 47 43 147 61 210 37z m653 -8 c48 -25 59 -63
59 -208 1 -67 5 -133 11 -147 9 -26 9 -26 -42 -26 -35 0 -54 5 -62 16 -11 15
-15 14 -47 -5 -64 -39 -162 -20 -188 36 -6 13 -11 41 -11 63 0 62 30 88 134
116 49 13 91 25 93 28 3 3 3 16 -1 29 -10 43 -98 47 -111 6 -5 -14 -16 -19
-43 -19 -20 0 -44 5 -52 10 -13 8 -12 15 6 47 12 21 36 46 55 55 47 25 153 24
199 -1z m432 -5 l35 -23 27 20 c34 25 106 33 145 17 58 -24 66 -48 69 -227 l4
-163 -56 0 -56 0 0 133 c0 141 -10 180 -46 185 -11 2 -32 -6 -45 -17 -23 -18
-24 -25 -27 -160 l-4 -141 -54 0 -54 0 0 139 c0 121 -2 142 -19 162 -16 20
-23 22 -47 14 -45 -16 -54 -46 -54 -187 l0 -128 -55 0 -55 0 0 195 0 195 50 0
c43 0 50 -3 50 -20 0 -18 2 -18 36 5 49 33 109 33 156 1z m603 1 c46 -26 80
-86 89 -159 l6 -48 -130 0 c-72 0 -130 -2 -130 -5 0 -20 32 -75 48 -84 32 -17
51 -13 77 15 22 23 30 26 70 21 25 -2 49 -7 52 -11 12 -12 -49 -84 -87 -101
-51 -23 -149 -17 -188 12 -110 82 -100 302 18 364 48 26 125 25 175 -4z m395
13 c17 -9 17 -12 2 -59 -14 -46 -17 -49 -40 -40 -31 12 -59 3 -73 -23 -6 -12
-14 -76 -17 -144 l-5 -124 -53 0 -54 0 0 195 0 195 55 0 c43 0 55 -3 55 -15 0
-13 4 -12 22 5 23 22 77 27 108 10z m510 -8 c34 -18 89 -97 76 -109 -3 -3 -28
-8 -56 -11 -41 -4 -50 -2 -50 11 0 9 -10 23 -22 31 -73 51 -139 -48 -109 -162
21 -76 93 -94 129 -32 14 25 23 30 52 29 19 0 43 -3 52 -7 16 -7 16 -10 -1
-48 -26 -57 -72 -87 -142 -92 -73 -5 -120 11 -158 53 -88 100 -57 291 54 341
44 20 134 17 175 -4z m399 4 c52 -27 56 -39 62 -195 4 -80 10 -156 14 -168 7
-22 5 -23 -45 -23 -43 0 -53 3 -57 19 -5 18 -7 18 -40 -5 -68 -46 -171 -25
-199 41 -18 44 -18 59 2 100 17 36 58 58 139 75 95 20 104 31 65 70 -27 27
-66 25 -94 -5 -23 -25 -50 -30 -93 -19 -19 5 -20 9 -12 32 14 37 38 62 74 78
40 18 149 18 184 0z m468 -18 c33 -33 42 -84 43 -240 l0 -128 -54 0 -54 0 -4
139 c-3 119 -6 142 -22 160 -25 27 -49 26 -83 -3 -28 -24 -28 -25 -31 -160
l-4 -136 -54 0 -54 0 0 195 0 195 50 0 c44 0 50 -3 50 -21 0 -20 0 -20 28 -1
41 29 52 32 110 28 41 -2 59 -9 79 -28z m400 13 c26 -12 52 -35 70 -62 25 -38
28 -51 28 -124 0 -74 -3 -86 -29 -123 -64 -93 -214 -110 -300 -34 -70 62 -75
231 -8 306 48 53 162 71 239 37z m608 -11 l25 -23 0 21 c0 20 5 22 50 22 l50
0 0 -270 0 -270 -55 0 -55 0 0 90 0 89 -35 -21 c-28 -16 -47 -19 -87 -16 -70
7 -121 59 -138 142 -22 108 6 194 80 244 46 31 127 27 165 -8z m914 1 c38 -27
66 -84 76 -153 l6 -48 -130 0 c-72 0 -131 -2 -131 -5 0 -20 32 -75 48 -84 32
-17 51 -13 77 15 22 23 30 26 70 21 25 -2 49 -7 52 -10 12 -12 -41 -79 -78
-97 -42 -22 -121 -26 -166 -9 -71 26 -106 91 -106 194 0 80 24 141 70 173 42
29 53 32 118 29 45 -2 70 -9 94 -26z m607 14 c52 -22 64 -60 64 -209 0 -69 4
-136 10 -150 9 -26 9 -26 -44 -26 -39 0 -55 4 -60 15 -5 13 -11 13 -43 -5 -67
-36 -149 -23 -190 30 -7 8 -13 36 -13 61 0 79 28 100 188 139 41 11 53 28 34
56 -20 31 -97 26 -107 -7 -5 -14 -16 -19 -43 -19 -20 0 -44 5 -52 10 -23 15
16 80 60 102 44 22 147 24 196 3z m1487 2 c58 -25 61 -36 68 -201 3 -83 9
-159 13 -168 7 -16 2 -18 -44 -18 -43 0 -53 3 -57 19 -5 18 -7 18 -40 -5 -66
-44 -166 -26 -198 36 -19 37 -19 73 1 111 17 34 52 51 139 69 69 14 86 25 78
48 -16 47 -72 55 -108 16 -21 -23 -31 -26 -66 -21 -22 3 -43 8 -46 11 -10 10
33 71 67 93 39 27 140 32 193 10z m613 -2 c52 -22 64 -60 64 -209 0 -69 4
-136 10 -150 9 -26 9 -26 -45 -26 -42 0 -55 3 -55 15 0 20 -6 19 -47 -6 -28
-17 -45 -20 -90 -17 -48 4 -61 10 -85 37 -22 24 -28 41 -28 75 0 77 22 93 188
136 35 9 42 15 42 36 0 17 -8 27 -26 34 -38 15 -53 12 -80 -15 -26 -26 -75
-33 -103 -16 -21 14 17 80 59 103 43 22 146 24 196 3z m981 4 c63 -24 113
-107 113 -191 l0 -28 -125 0 c-134 0 -136 -1 -116 -53 5 -13 23 -30 40 -37 26
-10 35 -10 56 4 14 9 25 21 25 28 0 11 95 7 106 -5 10 -10 -28 -68 -59 -91
-20 -15 -46 -21 -95 -24 -85 -4 -134 22 -170 88 -21 39 -23 55 -20 125 5 92
29 140 88 174 39 23 112 27 157 10z m474 -5 c49 -25 59 -64 59 -234 l0 -150
-55 0 -55 0 0 140 c0 127 -2 142 -20 160 -25 25 -51 25 -81 1 -23 -18 -24 -26
-27 -160 l-4 -141 -54 0 -54 0 0 195 0 195 50 0 c43 0 50 -3 50 -20 0 -18 2
-18 36 5 43 29 109 33 155 9z m409 -2 c34 -18 89 -97 76 -109 -3 -3 -28 -8
-54 -11 -43 -4 -50 -2 -55 17 -3 11 -17 26 -31 32 -72 33 -126 -64 -95 -174
20 -72 93 -87 127 -27 14 25 23 30 52 29 19 0 43 -4 52 -7 17 -7 16 -10 -3
-50 -29 -59 -70 -85 -140 -90 -73 -5 -120 11 -158 53 -88 100 -57 291 54 341
44 20 134 17 175 -4z m379 3 c60 -31 101 -105 101 -182 l0 -33 -125 0 c-103 0
-125 -3 -125 -15 0 -29 23 -64 51 -76 24 -9 33 -9 54 5 14 9 25 21 25 28 0 11
95 7 106 -5 10 -9 -28 -68 -58 -90 -42 -32 -135 -35 -192 -8 -60 29 -96 98
-96 183 0 127 69 208 178 208 29 0 66 -7 81 -15z m404 3 c15 -12 15 -18 3 -58
-9 -29 -19 -44 -27 -41 -8 2 -21 5 -30 8 -8 2 -26 -5 -40 -15 -23 -19 -24 -26
-27 -151 l-4 -131 -54 0 -54 0 0 195 0 195 50 0 c43 0 50 -3 50 -20 0 -18 2
-17 25 5 27 28 80 34 108 13z m500 -1 c57 -24 61 -37 68 -196 4 -80 10 -156
14 -168 7 -22 5 -23 -45 -23 -43 0 -53 3 -57 19 -5 18 -7 18 -40 -5 -69 -47
-171 -25 -200 43 -20 49 -10 96 28 127 26 22 84 46 114 46 6 0 27 5 48 11 42
11 47 29 17 59 -27 27 -66 25 -94 -5 -24 -26 -68 -33 -96 -15 -23 15 16 80 60
102 42 22 137 24 183 5z m610 0 c58 -25 61 -36 68 -201 3 -83 9 -159 13 -168
7 -16 2 -18 -44 -18 -43 0 -53 3 -57 19 -5 18 -7 18 -40 -5 -66 -44 -166 -26
-198 36 -42 81 5 152 115 175 100 20 111 25 104 48 -15 51 -71 62 -108 22 -23
-25 -50 -30 -93 -19 -19 5 -20 9 -12 32 24 63 74 91 162 92 32 0 72 -6 90 -13z
m455 -7 c18 -11 37 -32 42 -46 6 -14 10 -95 10 -180 l0 -154 -55 0 -55 0 0
145 c0 143 0 145 -25 161 -21 14 -30 14 -54 4 -41 -17 -51 -53 -51 -191 l0
-119 -55 0 -55 0 0 195 0 195 50 0 c44 0 50 -3 50 -20 0 -20 1 -20 37 5 47 32
114 34 161 5z m399 -6 c30 -23 69 -81 60 -91 -3 -3 -26 -8 -51 -10 -37 -5 -46
-2 -55 15 -21 39 -121 40 -121 2 0 -14 11 -22 43 -30 157 -40 197 -68 197
-138 0 -88 -75 -138 -193 -130 -74 4 -129 38 -152 92 -12 27 -11 32 3 38 40
16 80 8 110 -22 44 -43 122 -37 122 10 0 15 -13 23 -57 35 -100 28 -137 45
-157 71 -39 54 -14 142 49 170 46 22 167 14 202 -12z m589 5 c56 -27 84 -73
91 -149 l6 -60 -128 0 -127 0 6 -27 c8 -34 50 -73 77 -73 11 0 30 11 43 25 24
25 69 32 109 16 17 -6 16 -9 -5 -41 -51 -75 -146 -102 -231 -66 -136 56 -139
313 -5 379 46 23 113 21 164 -4z m874 2 c48 -25 59 -63 59 -208 1 -67 5 -133
11 -147 9 -26 9 -26 -42 -26 -35 0 -54 5 -62 16 -11 14 -16 13 -49 -6 -30 -18
-48 -21 -89 -18 -69 7 -108 47 -108 112 0 77 22 93 188 136 29 7 42 16 42 28
0 28 -14 41 -47 48 -26 5 -37 1 -58 -20 -27 -27 -76 -35 -105 -16 -23 15 16
80 60 102 48 25 154 24 200 -1z m826 -2 c56 -27 84 -73 91 -149 l6 -60 -128 0
-127 0 6 -27 c8 -34 50 -73 77 -73 11 0 30 11 43 25 24 25 69 32 109 16 17 -6
16 -9 -5 -41 -37 -55 -82 -80 -144 -80 -29 0 -65 5 -81 11 -85 32 -133 152
-103 260 33 119 147 171 256 118z m-12746 -184 l0 -195 -55 0 -55 0 0 195 0
195 55 0 55 0 0 -195z m2550 50 c0 -143 0 -145 25 -161 21 -14 30 -14 54 -5
43 18 51 49 51 186 l0 125 55 0 55 0 0 -195 0 -195 -50 0 c-44 0 -50 3 -50 21
0 20 0 20 -31 -2 -42 -29 -116 -36 -157 -15 -54 28 -62 57 -62 231 l0 155 55
0 55 0 0 -145z m1450 -89 c0 -129 -4 -246 -10 -260 -12 -33 -59 -56 -112 -56
-59 0 -68 8 -59 50 5 27 13 35 39 42 l32 9 0 224 0 225 55 0 55 0 0 -234z
m210 89 c0 -141 1 -145 24 -160 32 -21 73 -10 91 26 11 20 15 63 15 154 l0
125 55 0 55 0 0 -195 0 -195 -50 0 c-44 0 -50 3 -50 21 0 20 0 20 -32 -3 -26
-18 -46 -23 -97 -23 -60 0 -65 2 -92 35 l-29 34 0 163 0 163 55 0 55 0 0 -145z
m2101 21 l44 -124 44 124 43 124 54 0 c30 0 54 -4 54 -8 0 -4 -22 -64 -49
-132 -27 -69 -59 -153 -71 -188 l-23 -62 -51 0 -51 0 -76 195 -76 195 57 0 58
0 43 -124z m4409 -71 l0 -195 -55 0 -55 0 0 195 0 195 55 0 55 0 0 -195z
m2320 -145 l0 -50 -53 0 -53 0 -3 50 -2 50 56 0 55 0 0 -50z"/>
<path d="M1914 507 c-23 -20 -28 -34 -32 -83 -5 -70 8 -107 43 -130 76 -49
145 75 101 181 -24 57 -68 70 -112 32z"/>
<path d="M9394 507 c-23 -20 -28 -34 -32 -83 -5 -70 8 -107 43 -130 76 -49
145 75 101 181 -24 57 -68 70 -112 32z"/>
<path d="M16080 517 c-34 -17 -53 -78 -45 -140 8 -55 29 -83 67 -93 22 -5 33
0 58 24 27 27 30 37 30 92 0 70 -19 115 -52 124 -30 8 -29 8 -58 -7z"/>
<path d="M16923 515 c-49 -34 -53 -166 -7 -212 31 -31 60 -29 95 6 26 26 29
36 29 90 0 71 -13 105 -47 120 -32 15 -44 14 -70 -4z"/>
<path d="M805 505 c-14 -13 -25 -33 -25 -45 0 -18 6 -20 70 -20 64 0 70 2 70
20 0 27 -43 70 -70 70 -11 0 -32 -11 -45 -25z"/>
<path d="M1470 502 c-75 -76 -24 -238 70 -217 86 19 97 204 14 235 -39 15 -53
12 -84 -18z"/>
<path d="M2367 509 c-54 -42 -58 -150 -6 -201 31 -32 48 -34 88 -14 34 18 51
54 51 112 0 55 -20 96 -55 112 -36 17 -48 15 -78 -9z"/>
<path d="M3035 365 c-5 -2 -23 -6 -38 -9 -24 -6 -28 -11 -25 -34 2 -19 11 -29
31 -36 35 -13 80 18 85 57 3 23 0 27 -20 26 -13 0 -27 -2 -33 -4z"/>
<path d="M4046 509 c-15 -12 -26 -30 -26 -45 0 -23 3 -24 70 -24 75 0 79 4 55
49 -23 46 -57 53 -99 20z"/>
<path d="M5352 359 c-43 -13 -52 -37 -22 -61 40 -32 110 2 110 53 0 21 -31 24
-88 8z"/>
<path d="M6224 520 c-38 -15 -54 -50 -54 -116 0 -46 5 -68 20 -87 24 -30 60
-40 94 -27 75 28 75 202 0 230 -29 12 -32 12 -60 0z"/>
<path d="M6860 517 c-55 -27 -64 -164 -15 -213 30 -30 57 -30 91 -1 23 20 28
34 32 86 5 72 -9 114 -44 130 -31 14 -33 14 -64 -2z"/>
<path d="M7726 509 c-15 -12 -26 -30 -26 -45 0 -23 3 -24 70 -24 39 0 70 2 70
4 0 24 -28 69 -47 77 -33 12 -37 12 -67 -12z"/>
<path d="M8356 361 c-54 -12 -62 -64 -11 -77 35 -9 79 23 83 59 4 29 -9 32
-72 18z"/>
<path d="M9843 359 c-18 -5 -35 -14 -38 -19 -11 -18 6 -50 30 -56 27 -7 85 21
85 40 0 8 3 21 6 30 5 12 0 16 -22 15 -16 0 -43 -5 -61 -10z"/>
<path d="M10460 363 c-51 -10 -68 -52 -29 -73 41 -23 99 10 99 56 0 25 -11 28
-70 17z"/>
<path d="M11445 505 c-14 -13 -25 -33 -25 -45 0 -18 6 -20 70 -20 64 0 70 2
70 20 0 27 -43 70 -70 70 -11 0 -32 -11 -45 -25z"/>
<path d="M12702 513 c-12 -10 -24 -30 -28 -45 l-6 -28 71 0 c65 0 71 2 71 20
0 26 -43 70 -68 70 -11 0 -29 -8 -40 -17z"/>
<path d="M13600 357 c-40 -14 -49 -37 -24 -62 34 -33 114 6 114 56 0 22 -35
25 -90 6z"/>
<path d="M14210 357 c-67 -23 -40 -87 30 -72 34 7 46 20 55 58 7 25 5 27 -21
26 -16 0 -45 -5 -64 -12z"/>
<path d="M15664 520 c-17 -7 -44 -54 -44 -76 0 -2 34 -4 75 -4 41 0 75 2 75 4
0 23 -26 66 -46 75 -29 13 -32 13 -60 1z"/>
<path d="M16513 359 c-26 -7 -33 -15 -33 -34 0 -45 66 -58 104 -19 9 8 16 26
16 40 0 20 -5 24 -27 23 -16 0 -43 -5 -60 -10z"/>
<path d="M17363 518 c-17 -8 -43 -53 -43 -74 0 -2 34 -4 75 -4 41 0 75 2 75 4
0 23 -26 66 -46 75 -29 13 -32 13 -61 -1z"/>
</g>
</svg>
